<svg xmlns="http://www.w3.org/2000/svg" xmlns:xlink="http://www.w3.org/1999/xlink" height="221" version="1.1" viewBox="0 0 505 221" width="505"><rect fill="#ffffff" height="221" width="505"/><ellipse cx="472" cy="20" fill="#eeeeee" rx="32" ry="20" stroke="white" stroke-width="1.0"/><text fill="black" font-decoration="none" font-family="Arial,Helvetica" font-size="16" font-weight="normal" text-anchor="middle"><tspan x="472" y="25">fred</tspan></text><ellipse cx="194" cy="20" fill="#eeeeee" rx="48" ry="20" stroke="white" stroke-width="1.0"/><text fill="black" font-decoration="none" font-family="Arial,Helvetica" font-size="16" font-weight="normal" text-anchor="middle"><tspan x="193" y="25">george</tspan></text><ellipse cx="64" cy="110" fill="#eeeeee" rx="56" ry="20" stroke="white" stroke-width="1.0"/><text fill="black" font-decoration="none" font-family="Arial,Helvetica" font-size="16" font-weight="normal" text-anchor="middle"><tspan x="63" y="115">dorothy</tspan></text><ellipse cx="324" cy="110" fill="#eeeeee" rx="48" ry="20" stroke="white" stroke-width="1.0"/><text fill="black" font-decoration="none" font-family="Arial,Helvetica" font-size="16" font-weight="normal" text-anchor="middle"><tspan x="323" y="115">evelyn</tspan></text><ellipse cx="64" cy="200" fill="#eeeeee" rx="64" ry="20" stroke="white" stroke-width="1.0"/><text fill="black" font-decoration="none" font-family="Arial,Helvetica" font-size="16" font-weight="normal" text-anchor="middle"><tspan x="64" y="205">bertrand</tspan></text><ellipse cx="182" cy="200" fill="#eeeeee" rx="24" ry="20" stroke="white" stroke-width="1.0"/><text fill="black" font-decoration="none" font-family="Arial,Helvetica" font-size="16" font-weight="normal" text-anchor="middle"><tspan x="181" y="205">ann</tspan></text><ellipse cx="198" cy="110" fill="#eeeeee" rx="48" ry="20" stroke="white" stroke-width="1.0"/><text fill="black" font-decoration="none" font-family="Arial,Helvetica" font-size="16" font-weight="normal" text-anchor="middle"><tspan x="198" y="115">hilary</tspan></text><ellipse cx="324" cy="200" fill="#eeeeee" rx="56" ry="20" stroke="white" stroke-width="1.0"/><text fill="black" font-decoration="none" font-family="Arial,Helvetica" font-size="16" font-weight="normal" text-anchor="middle"><tspan x="324" y="205">charles</tspan></text><g><path d="M 64.0 89.5 L 61.0 83.5 L 64.0 85.0 L 67.0 83.5 z" fill="#999" stroke="#999" stroke-width="1.0"/><path d="M 172.5 38.38150619743451 L 172.5 45.19075309871725 Q 172.5 52.0 162.7753139997372 54.330339502367124 L 73.7246860002628 75.66966049763288 Q 64.0 78.0 64.0 84.0 L 64.0 90.0" fill="none" stroke="#999" stroke-width="1.0"/></g><g><path d="M 324.0 89.5 L 321.0 83.5 L 324.0 85.0 L 327.0 83.5 z" fill="#999" stroke="#999" stroke-width="1.0"/><path d="M 215.5 38.38150619743451 L 215.5 45.19075309871725 Q 215.5 52.0 225.2246860002628 54.330339502367124 L 314.2753139997372 75.66966049763288 Q 324.0 78.0 324.0 84.0 L 324.0 90.0" fill="none" stroke="#999" stroke-width="1.0"/></g><g><path d="M 64.0 179.5 L 61.0 173.5 L 64.0 175.0 L 67.0 173.5 z" fill="#999" stroke="#999" stroke-width="1.0"/><path d="M 38.5 128.30617727025066 L 38.5 135.15308863512533 Q 38.5 142.0 45.50208666892469 149.13938248596244 L 56.9979133310753 160.86061751403759 Q 64.0 168.0 64.0 174.0 L 64.0 180.0" fill="none" stroke="#999" stroke-width="1.0"/></g><g><path d="M 172.5 181.13355263288818 L 169.5 175.13355263288818 L 172.5 176.63355263288818 L 175.5 175.13355263288818 z" fill="#999" stroke="#999" stroke-width="1.0"/><path d="M 89.5 128.30617727025066 L 89.5 135.15308863512533 Q 89.5 142.0 99.04275175395827 144.9892957301556 L 162.95724824604173 165.0107042698444 Q 172.5 168.0 172.5 174.81677631644408 L 172.5 181.63355263288818" fill="none" stroke="#999" stroke-width="1.0"/></g><g><path d="M 191.5 181.13355263288818 L 188.5 175.13355263288818 L 191.5 176.63355263288818 L 194.5 175.13355263288818 z" fill="#999" stroke="#999" stroke-width="1.0"/><path d="M 198.0 130.5 L 198.0 136.25 Q 198.0 142.0 195.57464374963666 151.70142500145332 L 193.53732187481833 159.85071250072667 Q 191.5 168.0 191.5 174.81677631644408 L 191.5 181.63355263288818" fill="none" stroke="#999" stroke-width="1.0"/></g><g><path d="M 324.0 179.5 L 321.0 173.5 L 324.0 175.0 L 327.0 173.5 z" fill="#999" stroke="#999" stroke-width="1.0"/><path d="M 324.0 130.5 L 324.0 136.25 Q 324.0 142.0 324.0 152.0 L 324.0 160.0 Q 324.0 168.0 324.0 174.0 L 324.0 180.0" fill="none" stroke="#999" stroke-width="1.0"/></g></svg>